<mxfile host="Electron" agent="Mozilla/5.0 (Windows NT 10.0; Win64; x64) AppleWebKit/537.36 (KHTML, like Gecko) draw.io/24.7.17 Chrome/128.0.6613.36 Electron/32.0.1 Safari/537.36" version="24.7.17">
  <diagram name="Страница — 1" id="nkwKyZl70lcJ9TqQ4wZG">
    <mxGraphModel dx="1434" dy="836" grid="1" gridSize="10" guides="1" tooltips="1" connect="1" arrows="1" fold="1" page="1" pageScale="1" pageWidth="827" pageHeight="1169" math="0" shadow="0">
      <root>
        <mxCell id="0" />
        <mxCell id="1" parent="0" />
        <mxCell id="xvzeSq6x5T74EP9vHdep-1" style="edgeStyle=orthogonalEdgeStyle;rounded=0;orthogonalLoop=1;jettySize=auto;html=1;exitX=0.175;exitY=0.75;exitDx=0;exitDy=0;exitPerimeter=0;endArrow=none;endFill=0;" edge="1" parent="1" source="xvzeSq6x5T74EP9vHdep-2">
          <mxGeometry relative="1" as="geometry">
            <mxPoint x="90" y="400" as="targetPoint" />
          </mxGeometry>
        </mxCell>
        <mxCell id="xvzeSq6x5T74EP9vHdep-2" value="" style="shape=xor;whiteSpace=wrap;html=1;" vertex="1" parent="1">
          <mxGeometry x="240" y="280" width="60" height="80" as="geometry" />
        </mxCell>
        <mxCell id="xvzeSq6x5T74EP9vHdep-3" value="" style="shape=xor;whiteSpace=wrap;html=1;" vertex="1" parent="1">
          <mxGeometry x="400" y="200" width="60" height="80" as="geometry" />
        </mxCell>
        <mxCell id="xvzeSq6x5T74EP9vHdep-4" value="" style="shape=xor;whiteSpace=wrap;html=1;" vertex="1" parent="1">
          <mxGeometry x="400" y="360" width="60" height="80" as="geometry" />
        </mxCell>
        <mxCell id="xvzeSq6x5T74EP9vHdep-5" value="" style="shape=xor;whiteSpace=wrap;html=1;" vertex="1" parent="1">
          <mxGeometry x="560" y="280" width="60" height="80" as="geometry" />
        </mxCell>
        <mxCell id="xvzeSq6x5T74EP9vHdep-6" value="" style="shape=xor;whiteSpace=wrap;html=1;" vertex="1" parent="1">
          <mxGeometry x="720" y="360" width="60" height="80" as="geometry" />
        </mxCell>
        <mxCell id="xvzeSq6x5T74EP9vHdep-7" value="" style="shape=xor;whiteSpace=wrap;html=1;" vertex="1" parent="1">
          <mxGeometry x="890" y="280" width="60" height="80" as="geometry" />
        </mxCell>
        <mxCell id="xvzeSq6x5T74EP9vHdep-8" value="" style="shape=xor;whiteSpace=wrap;html=1;" vertex="1" parent="1">
          <mxGeometry x="880" y="440" width="60" height="80" as="geometry" />
        </mxCell>
        <mxCell id="xvzeSq6x5T74EP9vHdep-9" value="" style="shape=xor;whiteSpace=wrap;html=1;" vertex="1" parent="1">
          <mxGeometry x="1040" y="360" width="60" height="80" as="geometry" />
        </mxCell>
        <mxCell id="xvzeSq6x5T74EP9vHdep-10" value="" style="shape=xor;whiteSpace=wrap;html=1;" vertex="1" parent="1">
          <mxGeometry x="1040" y="160" width="60" height="80" as="geometry" />
        </mxCell>
        <mxCell id="xvzeSq6x5T74EP9vHdep-11" value="" style="endArrow=none;html=1;rounded=0;entryX=0.175;entryY=0.25;entryDx=0;entryDy=0;entryPerimeter=0;" edge="1" parent="1" target="xvzeSq6x5T74EP9vHdep-2">
          <mxGeometry width="50" height="50" relative="1" as="geometry">
            <mxPoint x="90" y="240" as="sourcePoint" />
            <mxPoint x="610" y="400" as="targetPoint" />
            <Array as="points">
              <mxPoint x="90" y="300" />
            </Array>
          </mxGeometry>
        </mxCell>
        <mxCell id="xvzeSq6x5T74EP9vHdep-12" style="edgeStyle=orthogonalEdgeStyle;rounded=0;orthogonalLoop=1;jettySize=auto;html=1;exitX=0.175;exitY=0.25;exitDx=0;exitDy=0;exitPerimeter=0;entryX=1.05;entryY=0.625;entryDx=0;entryDy=0;entryPerimeter=0;endArrow=none;endFill=0;" edge="1" parent="1" source="xvzeSq6x5T74EP9vHdep-3">
          <mxGeometry relative="1" as="geometry">
            <mxPoint x="112" y="220" as="targetPoint" />
          </mxGeometry>
        </mxCell>
        <mxCell id="xvzeSq6x5T74EP9vHdep-13" style="edgeStyle=orthogonalEdgeStyle;rounded=0;orthogonalLoop=1;jettySize=auto;html=1;exitX=1;exitY=0.5;exitDx=0;exitDy=0;exitPerimeter=0;entryX=0.175;entryY=0.75;entryDx=0;entryDy=0;entryPerimeter=0;endArrow=none;endFill=0;" edge="1" parent="1" source="xvzeSq6x5T74EP9vHdep-2" target="xvzeSq6x5T74EP9vHdep-3">
          <mxGeometry relative="1" as="geometry" />
        </mxCell>
        <mxCell id="xvzeSq6x5T74EP9vHdep-14" style="edgeStyle=orthogonalEdgeStyle;rounded=0;orthogonalLoop=1;jettySize=auto;html=1;exitX=1;exitY=0.5;exitDx=0;exitDy=0;exitPerimeter=0;entryX=0.175;entryY=0.25;entryDx=0;entryDy=0;entryPerimeter=0;endArrow=none;endFill=0;" edge="1" parent="1" source="xvzeSq6x5T74EP9vHdep-28" target="xvzeSq6x5T74EP9vHdep-4">
          <mxGeometry relative="1" as="geometry">
            <Array as="points">
              <mxPoint x="400" y="320" />
              <mxPoint x="400" y="380" />
            </Array>
          </mxGeometry>
        </mxCell>
        <mxCell id="xvzeSq6x5T74EP9vHdep-15" style="edgeStyle=orthogonalEdgeStyle;rounded=0;orthogonalLoop=1;jettySize=auto;html=1;exitX=0.175;exitY=0.75;exitDx=0;exitDy=0;exitPerimeter=0;entryX=1.1;entryY=0.375;entryDx=0;entryDy=0;entryPerimeter=0;endArrow=none;endFill=0;" edge="1" parent="1" source="xvzeSq6x5T74EP9vHdep-4">
          <mxGeometry relative="1" as="geometry">
            <mxPoint x="114" y="420" as="targetPoint" />
          </mxGeometry>
        </mxCell>
        <mxCell id="xvzeSq6x5T74EP9vHdep-16" style="edgeStyle=orthogonalEdgeStyle;rounded=0;orthogonalLoop=1;jettySize=auto;html=1;exitX=1;exitY=0.5;exitDx=0;exitDy=0;exitPerimeter=0;entryX=0.175;entryY=0.25;entryDx=0;entryDy=0;entryPerimeter=0;endArrow=none;endFill=0;" edge="1" parent="1" source="xvzeSq6x5T74EP9vHdep-32" target="xvzeSq6x5T74EP9vHdep-5">
          <mxGeometry relative="1" as="geometry">
            <Array as="points">
              <mxPoint x="550" y="240" />
              <mxPoint x="550" y="300" />
            </Array>
          </mxGeometry>
        </mxCell>
        <mxCell id="xvzeSq6x5T74EP9vHdep-17" style="edgeStyle=orthogonalEdgeStyle;rounded=0;orthogonalLoop=1;jettySize=auto;html=1;exitX=1;exitY=0.5;exitDx=0;exitDy=0;exitPerimeter=0;entryX=0.175;entryY=0.75;entryDx=0;entryDy=0;entryPerimeter=0;endArrow=none;endFill=0;" edge="1" parent="1" source="xvzeSq6x5T74EP9vHdep-30" target="xvzeSq6x5T74EP9vHdep-5">
          <mxGeometry relative="1" as="geometry">
            <Array as="points">
              <mxPoint x="550" y="400" />
              <mxPoint x="550" y="340" />
            </Array>
          </mxGeometry>
        </mxCell>
        <mxCell id="xvzeSq6x5T74EP9vHdep-18" style="edgeStyle=orthogonalEdgeStyle;rounded=0;orthogonalLoop=1;jettySize=auto;html=1;exitX=1;exitY=0.5;exitDx=0;exitDy=0;exitPerimeter=0;entryX=0.175;entryY=0.25;entryDx=0;entryDy=0;entryPerimeter=0;endArrow=none;endFill=0;" edge="1" parent="1" source="xvzeSq6x5T74EP9vHdep-5" target="xvzeSq6x5T74EP9vHdep-7">
          <mxGeometry relative="1" as="geometry" />
        </mxCell>
        <mxCell id="xvzeSq6x5T74EP9vHdep-19" style="edgeStyle=orthogonalEdgeStyle;rounded=0;orthogonalLoop=1;jettySize=auto;html=1;exitX=1;exitY=0.5;exitDx=0;exitDy=0;exitPerimeter=0;entryX=0.175;entryY=0.25;entryDx=0;entryDy=0;entryPerimeter=0;endArrow=none;endFill=0;" edge="1" parent="1" source="xvzeSq6x5T74EP9vHdep-34" target="xvzeSq6x5T74EP9vHdep-6">
          <mxGeometry relative="1" as="geometry">
            <Array as="points">
              <mxPoint x="710" y="320" />
              <mxPoint x="710" y="380" />
            </Array>
          </mxGeometry>
        </mxCell>
        <mxCell id="xvzeSq6x5T74EP9vHdep-20" style="edgeStyle=orthogonalEdgeStyle;rounded=0;orthogonalLoop=1;jettySize=auto;html=1;exitX=0.175;exitY=0.75;exitDx=0;exitDy=0;exitPerimeter=0;entryX=1.025;entryY=0.525;entryDx=0;entryDy=0;entryPerimeter=0;endArrow=none;endFill=0;" edge="1" parent="1" source="xvzeSq6x5T74EP9vHdep-6">
          <mxGeometry relative="1" as="geometry">
            <mxPoint x="111" y="501" as="targetPoint" />
            <Array as="points">
              <mxPoint x="570" y="420" />
              <mxPoint x="570" y="500" />
              <mxPoint x="111" y="500" />
            </Array>
          </mxGeometry>
        </mxCell>
        <mxCell id="xvzeSq6x5T74EP9vHdep-21" style="edgeStyle=orthogonalEdgeStyle;rounded=0;orthogonalLoop=1;jettySize=auto;html=1;exitX=1;exitY=0.5;exitDx=0;exitDy=0;exitPerimeter=0;entryX=0.175;entryY=0.75;entryDx=0;entryDy=0;entryPerimeter=0;endArrow=none;endFill=0;" edge="1" parent="1" source="xvzeSq6x5T74EP9vHdep-6" target="xvzeSq6x5T74EP9vHdep-7">
          <mxGeometry relative="1" as="geometry">
            <Array as="points">
              <mxPoint x="830" y="400" />
              <mxPoint x="830" y="340" />
            </Array>
          </mxGeometry>
        </mxCell>
        <mxCell id="xvzeSq6x5T74EP9vHdep-22" style="edgeStyle=orthogonalEdgeStyle;rounded=0;orthogonalLoop=1;jettySize=auto;html=1;exitX=1;exitY=0.5;exitDx=0;exitDy=0;exitPerimeter=0;entryX=0.175;entryY=0.25;entryDx=0;entryDy=0;entryPerimeter=0;endArrow=none;endFill=0;" edge="1" parent="1" source="xvzeSq6x5T74EP9vHdep-38" target="xvzeSq6x5T74EP9vHdep-9">
          <mxGeometry relative="1" as="geometry">
            <Array as="points">
              <mxPoint x="1040" y="320" />
              <mxPoint x="1040" y="380" />
            </Array>
          </mxGeometry>
        </mxCell>
        <mxCell id="xvzeSq6x5T74EP9vHdep-23" style="edgeStyle=orthogonalEdgeStyle;rounded=0;orthogonalLoop=1;jettySize=auto;html=1;exitX=1;exitY=0.5;exitDx=0;exitDy=0;exitPerimeter=0;entryX=0.175;entryY=0.75;entryDx=0;entryDy=0;entryPerimeter=0;endArrow=none;endFill=0;" edge="1" parent="1" source="xvzeSq6x5T74EP9vHdep-42" target="xvzeSq6x5T74EP9vHdep-9">
          <mxGeometry relative="1" as="geometry">
            <Array as="points">
              <mxPoint x="1040" y="480" />
              <mxPoint x="1040" y="420" />
            </Array>
          </mxGeometry>
        </mxCell>
        <mxCell id="xvzeSq6x5T74EP9vHdep-24" style="edgeStyle=orthogonalEdgeStyle;rounded=0;orthogonalLoop=1;jettySize=auto;html=1;exitX=1;exitY=0.5;exitDx=0;exitDy=0;exitPerimeter=0;entryX=0.175;entryY=0.25;entryDx=0;entryDy=0;entryPerimeter=0;endArrow=none;endFill=0;" edge="1" parent="1" source="xvzeSq6x5T74EP9vHdep-6" target="xvzeSq6x5T74EP9vHdep-8">
          <mxGeometry relative="1" as="geometry">
            <Array as="points">
              <mxPoint x="830" y="400" />
              <mxPoint x="830" y="460" />
            </Array>
          </mxGeometry>
        </mxCell>
        <mxCell id="xvzeSq6x5T74EP9vHdep-25" style="edgeStyle=orthogonalEdgeStyle;rounded=0;orthogonalLoop=1;jettySize=auto;html=1;exitX=0.175;exitY=0.75;exitDx=0;exitDy=0;exitPerimeter=0;entryX=1;entryY=0.475;entryDx=0;entryDy=0;entryPerimeter=0;endArrow=none;endFill=0;" edge="1" parent="1" source="xvzeSq6x5T74EP9vHdep-8">
          <mxGeometry relative="1" as="geometry">
            <mxPoint x="110" y="499" as="targetPoint" />
            <Array as="points">
              <mxPoint x="110" y="500" />
            </Array>
          </mxGeometry>
        </mxCell>
        <mxCell id="xvzeSq6x5T74EP9vHdep-26" style="edgeStyle=orthogonalEdgeStyle;rounded=0;orthogonalLoop=1;jettySize=auto;html=1;exitX=1;exitY=0.5;exitDx=0;exitDy=0;exitPerimeter=0;entryX=0.175;entryY=0.25;entryDx=0;entryDy=0;entryPerimeter=0;endArrow=none;endFill=0;" edge="1" parent="1" source="xvzeSq6x5T74EP9vHdep-2" target="xvzeSq6x5T74EP9vHdep-10">
          <mxGeometry relative="1" as="geometry">
            <Array as="points">
              <mxPoint x="350" y="320" />
              <mxPoint x="350" y="180" />
            </Array>
          </mxGeometry>
        </mxCell>
        <mxCell id="xvzeSq6x5T74EP9vHdep-27" value="" style="edgeStyle=orthogonalEdgeStyle;rounded=0;orthogonalLoop=1;jettySize=auto;html=1;exitX=1;exitY=0.5;exitDx=0;exitDy=0;exitPerimeter=0;entryX=0.175;entryY=0.25;entryDx=0;entryDy=0;entryPerimeter=0;endArrow=none;endFill=0;" edge="1" parent="1" source="xvzeSq6x5T74EP9vHdep-2" target="xvzeSq6x5T74EP9vHdep-28">
          <mxGeometry relative="1" as="geometry">
            <mxPoint x="300" y="320" as="sourcePoint" />
            <mxPoint x="411" y="380" as="targetPoint" />
          </mxGeometry>
        </mxCell>
        <mxCell id="xvzeSq6x5T74EP9vHdep-28" value="" style="ellipse;whiteSpace=wrap;html=1;aspect=fixed;" vertex="1" parent="1">
          <mxGeometry x="300" y="315" width="10" height="10" as="geometry" />
        </mxCell>
        <mxCell id="xvzeSq6x5T74EP9vHdep-29" value="" style="edgeStyle=orthogonalEdgeStyle;rounded=0;orthogonalLoop=1;jettySize=auto;html=1;exitX=1;exitY=0.5;exitDx=0;exitDy=0;exitPerimeter=0;entryX=0.175;entryY=0.75;entryDx=0;entryDy=0;entryPerimeter=0;endArrow=none;endFill=0;" edge="1" parent="1" source="xvzeSq6x5T74EP9vHdep-4" target="xvzeSq6x5T74EP9vHdep-30">
          <mxGeometry relative="1" as="geometry">
            <mxPoint x="460" y="400" as="sourcePoint" />
            <mxPoint x="571" y="340" as="targetPoint" />
          </mxGeometry>
        </mxCell>
        <mxCell id="xvzeSq6x5T74EP9vHdep-30" value="" style="ellipse;whiteSpace=wrap;html=1;aspect=fixed;" vertex="1" parent="1">
          <mxGeometry x="460" y="395" width="10" height="10" as="geometry" />
        </mxCell>
        <mxCell id="xvzeSq6x5T74EP9vHdep-31" value="" style="edgeStyle=orthogonalEdgeStyle;rounded=0;orthogonalLoop=1;jettySize=auto;html=1;exitX=1;exitY=0.5;exitDx=0;exitDy=0;exitPerimeter=0;entryX=0.175;entryY=0.25;entryDx=0;entryDy=0;entryPerimeter=0;endArrow=none;endFill=0;" edge="1" parent="1" source="xvzeSq6x5T74EP9vHdep-3" target="xvzeSq6x5T74EP9vHdep-32">
          <mxGeometry relative="1" as="geometry">
            <mxPoint x="460" y="240" as="sourcePoint" />
            <mxPoint x="571" y="300" as="targetPoint" />
          </mxGeometry>
        </mxCell>
        <mxCell id="xvzeSq6x5T74EP9vHdep-32" value="" style="ellipse;whiteSpace=wrap;html=1;aspect=fixed;" vertex="1" parent="1">
          <mxGeometry x="460" y="235" width="10" height="10" as="geometry" />
        </mxCell>
        <mxCell id="xvzeSq6x5T74EP9vHdep-33" value="" style="edgeStyle=orthogonalEdgeStyle;rounded=0;orthogonalLoop=1;jettySize=auto;html=1;exitX=1;exitY=0.5;exitDx=0;exitDy=0;exitPerimeter=0;entryX=0.175;entryY=0.25;entryDx=0;entryDy=0;entryPerimeter=0;endArrow=none;endFill=0;" edge="1" parent="1" source="xvzeSq6x5T74EP9vHdep-5" target="xvzeSq6x5T74EP9vHdep-34">
          <mxGeometry relative="1" as="geometry">
            <mxPoint x="620" y="320" as="sourcePoint" />
            <mxPoint x="731" y="380" as="targetPoint" />
          </mxGeometry>
        </mxCell>
        <mxCell id="xvzeSq6x5T74EP9vHdep-34" value="" style="ellipse;whiteSpace=wrap;html=1;aspect=fixed;" vertex="1" parent="1">
          <mxGeometry x="620" y="315" width="10" height="10" as="geometry" />
        </mxCell>
        <mxCell id="xvzeSq6x5T74EP9vHdep-35" value="" style="edgeStyle=orthogonalEdgeStyle;rounded=0;orthogonalLoop=1;jettySize=auto;html=1;exitX=0.175;exitY=0.75;exitDx=0;exitDy=0;exitPerimeter=0;entryX=1;entryY=0.5;entryDx=0;entryDy=0;entryPerimeter=0;endArrow=none;endFill=0;" edge="1" parent="1" source="xvzeSq6x5T74EP9vHdep-10" target="xvzeSq6x5T74EP9vHdep-36">
          <mxGeometry relative="1" as="geometry">
            <mxPoint x="1051" y="220" as="sourcePoint" />
            <mxPoint x="780" y="400" as="targetPoint" />
            <Array as="points">
              <mxPoint x="830" y="220" />
              <mxPoint x="830" y="400" />
            </Array>
          </mxGeometry>
        </mxCell>
        <mxCell id="xvzeSq6x5T74EP9vHdep-36" value="" style="ellipse;whiteSpace=wrap;html=1;aspect=fixed;" vertex="1" parent="1">
          <mxGeometry x="780" y="395" width="10" height="10" as="geometry" />
        </mxCell>
        <mxCell id="xvzeSq6x5T74EP9vHdep-37" value="" style="edgeStyle=orthogonalEdgeStyle;rounded=0;orthogonalLoop=1;jettySize=auto;html=1;exitX=1;exitY=0.5;exitDx=0;exitDy=0;exitPerimeter=0;entryX=0.175;entryY=0.25;entryDx=0;entryDy=0;entryPerimeter=0;endArrow=none;endFill=0;" edge="1" parent="1" source="xvzeSq6x5T74EP9vHdep-7" target="xvzeSq6x5T74EP9vHdep-38">
          <mxGeometry relative="1" as="geometry">
            <mxPoint x="950" y="320" as="sourcePoint" />
            <mxPoint x="1051" y="380" as="targetPoint" />
          </mxGeometry>
        </mxCell>
        <mxCell id="xvzeSq6x5T74EP9vHdep-38" value="" style="ellipse;whiteSpace=wrap;html=1;aspect=fixed;" vertex="1" parent="1">
          <mxGeometry x="950" y="315" width="10" height="10" as="geometry" />
        </mxCell>
        <mxCell id="xvzeSq6x5T74EP9vHdep-39" value="" style="ellipse;whiteSpace=wrap;html=1;aspect=fixed;" vertex="1" parent="1">
          <mxGeometry x="1100" y="395" width="10" height="10" as="geometry" />
        </mxCell>
        <mxCell id="xvzeSq6x5T74EP9vHdep-40" value="" style="ellipse;whiteSpace=wrap;html=1;aspect=fixed;" vertex="1" parent="1">
          <mxGeometry x="1100" y="195" width="10" height="10" as="geometry" />
        </mxCell>
        <mxCell id="xvzeSq6x5T74EP9vHdep-41" value="" style="edgeStyle=orthogonalEdgeStyle;rounded=0;orthogonalLoop=1;jettySize=auto;html=1;exitX=1;exitY=0.5;exitDx=0;exitDy=0;exitPerimeter=0;entryX=0.175;entryY=0.75;entryDx=0;entryDy=0;entryPerimeter=0;endArrow=none;endFill=0;" edge="1" parent="1" source="xvzeSq6x5T74EP9vHdep-8" target="xvzeSq6x5T74EP9vHdep-42">
          <mxGeometry relative="1" as="geometry">
            <mxPoint x="940" y="480" as="sourcePoint" />
            <mxPoint x="1051" y="420" as="targetPoint" />
          </mxGeometry>
        </mxCell>
        <mxCell id="xvzeSq6x5T74EP9vHdep-42" value="" style="ellipse;whiteSpace=wrap;html=1;aspect=fixed;" vertex="1" parent="1">
          <mxGeometry x="940" y="475" width="10" height="10" as="geometry" />
        </mxCell>
        <mxCell id="xvzeSq6x5T74EP9vHdep-43" value="" style="ellipse;whiteSpace=wrap;html=1;fillStyle=solid;fillColor=#ffffff;recursiveResize=0;expand=0;editable=1;movable=1;resizable=1;rotatable=0;deletable=1;locked=0;connectable=0;allowArrows=0;aspect=fixed;" vertex="1" parent="1">
          <mxGeometry x="345" y="315" width="10" height="10" as="geometry" />
        </mxCell>
        <mxCell id="xvzeSq6x5T74EP9vHdep-44" value="" style="ellipse;whiteSpace=wrap;html=1;fillStyle=solid;fillColor=#ffffff;recursiveResize=0;expand=0;editable=1;movable=1;resizable=1;rotatable=0;deletable=1;locked=0;connectable=0;allowArrows=0;aspect=fixed;" vertex="1" parent="1">
          <mxGeometry x="345" y="255" width="10" height="10" as="geometry" />
        </mxCell>
        <mxCell id="xvzeSq6x5T74EP9vHdep-45" value="" style="ellipse;whiteSpace=wrap;html=1;aspect=fixed;fillStyle=solid;fillColor=#ffffff;recursiveResize=0;expand=0;editable=1;movable=1;resizable=1;rotatable=0;deletable=1;locked=0;connectable=0;allowArrows=0;" vertex="1" parent="1">
          <mxGeometry x="705" y="315" width="10" height="10" as="geometry" />
        </mxCell>
        <mxCell id="xvzeSq6x5T74EP9vHdep-46" value="" style="ellipse;whiteSpace=wrap;html=1;aspect=fixed;fillStyle=solid;fillColor=#ffffff;recursiveResize=0;expand=0;editable=1;movable=1;resizable=1;rotatable=0;deletable=1;locked=0;connectable=0;allowArrows=0;" vertex="1" parent="1">
          <mxGeometry x="565" y="495" width="10" height="10" as="geometry" />
        </mxCell>
        <mxCell id="xvzeSq6x5T74EP9vHdep-47" value="" style="ellipse;whiteSpace=wrap;html=1;aspect=fixed;fillStyle=solid;fillColor=#ffffff;recursiveResize=0;expand=0;editable=1;movable=1;resizable=1;rotatable=0;deletable=1;locked=0;connectable=0;allowArrows=0;" vertex="1" parent="1">
          <mxGeometry x="827" y="395" width="10" height="10" as="geometry" />
        </mxCell>
        <mxCell id="xvzeSq6x5T74EP9vHdep-48" value="" style="ellipse;whiteSpace=wrap;html=1;aspect=fixed;fillStyle=solid;fillColor=#ffffff;recursiveResize=0;expand=0;editable=1;movable=1;resizable=1;rotatable=0;deletable=1;locked=0;connectable=0;allowArrows=0;" vertex="1" parent="1">
          <mxGeometry x="827" y="335" width="10" height="10" as="geometry" />
        </mxCell>
        <mxCell id="xvzeSq6x5T74EP9vHdep-49" style="edgeStyle=orthogonalEdgeStyle;rounded=0;orthogonalLoop=1;jettySize=auto;html=1;exitX=0.175;exitY=0.75;exitDx=0;exitDy=0;exitPerimeter=0;endArrow=none;endFill=0;" edge="1" parent="1" source="xvzeSq6x5T74EP9vHdep-50">
          <mxGeometry relative="1" as="geometry">
            <mxPoint x="90" y="400" as="targetPoint" />
          </mxGeometry>
        </mxCell>
        <mxCell id="xvzeSq6x5T74EP9vHdep-50" value="" style="shape=xor;whiteSpace=wrap;html=1;" vertex="1" parent="1">
          <mxGeometry x="240" y="280" width="60" height="80" as="geometry" />
        </mxCell>
        <mxCell id="xvzeSq6x5T74EP9vHdep-51" value="" style="shape=xor;whiteSpace=wrap;html=1;" vertex="1" parent="1">
          <mxGeometry x="400" y="200" width="60" height="80" as="geometry" />
        </mxCell>
        <mxCell id="xvzeSq6x5T74EP9vHdep-52" value="" style="shape=xor;whiteSpace=wrap;html=1;" vertex="1" parent="1">
          <mxGeometry x="400" y="360" width="60" height="80" as="geometry" />
        </mxCell>
        <mxCell id="xvzeSq6x5T74EP9vHdep-53" value="" style="shape=xor;whiteSpace=wrap;html=1;" vertex="1" parent="1">
          <mxGeometry x="560" y="280" width="60" height="80" as="geometry" />
        </mxCell>
        <mxCell id="xvzeSq6x5T74EP9vHdep-54" value="" style="shape=xor;whiteSpace=wrap;html=1;" vertex="1" parent="1">
          <mxGeometry x="720" y="360" width="60" height="80" as="geometry" />
        </mxCell>
        <mxCell id="xvzeSq6x5T74EP9vHdep-55" value="" style="shape=xor;whiteSpace=wrap;html=1;" vertex="1" parent="1">
          <mxGeometry x="890" y="280" width="60" height="80" as="geometry" />
        </mxCell>
        <mxCell id="xvzeSq6x5T74EP9vHdep-56" value="" style="shape=xor;whiteSpace=wrap;html=1;" vertex="1" parent="1">
          <mxGeometry x="880" y="440" width="60" height="80" as="geometry" />
        </mxCell>
        <mxCell id="xvzeSq6x5T74EP9vHdep-101" style="edgeStyle=orthogonalEdgeStyle;rounded=0;orthogonalLoop=1;jettySize=auto;html=1;" edge="1" parent="1" source="xvzeSq6x5T74EP9vHdep-57">
          <mxGeometry relative="1" as="geometry">
            <mxPoint x="1150" y="400" as="targetPoint" />
          </mxGeometry>
        </mxCell>
        <mxCell id="xvzeSq6x5T74EP9vHdep-103" value="Sum" style="edgeLabel;html=1;align=center;verticalAlign=middle;resizable=0;points=[];" vertex="1" connectable="0" parent="xvzeSq6x5T74EP9vHdep-101">
          <mxGeometry x="-0.01" y="3" relative="1" as="geometry">
            <mxPoint x="-2" y="-10" as="offset" />
          </mxGeometry>
        </mxCell>
        <mxCell id="xvzeSq6x5T74EP9vHdep-57" value="" style="shape=xor;whiteSpace=wrap;html=1;" vertex="1" parent="1">
          <mxGeometry x="1040" y="360" width="60" height="80" as="geometry" />
        </mxCell>
        <mxCell id="xvzeSq6x5T74EP9vHdep-100" style="edgeStyle=orthogonalEdgeStyle;rounded=0;orthogonalLoop=1;jettySize=auto;html=1;" edge="1" parent="1" source="xvzeSq6x5T74EP9vHdep-58">
          <mxGeometry relative="1" as="geometry">
            <mxPoint x="1150" y="200" as="targetPoint" />
          </mxGeometry>
        </mxCell>
        <mxCell id="xvzeSq6x5T74EP9vHdep-102" value="C_out" style="edgeLabel;html=1;align=center;verticalAlign=middle;resizable=0;points=[];" vertex="1" connectable="0" parent="xvzeSq6x5T74EP9vHdep-100">
          <mxGeometry x="0.1313" y="3" relative="1" as="geometry">
            <mxPoint y="-7" as="offset" />
          </mxGeometry>
        </mxCell>
        <mxCell id="xvzeSq6x5T74EP9vHdep-58" value="" style="shape=xor;whiteSpace=wrap;html=1;" vertex="1" parent="1">
          <mxGeometry x="1040" y="160" width="60" height="80" as="geometry" />
        </mxCell>
        <mxCell id="xvzeSq6x5T74EP9vHdep-59" value="" style="endArrow=none;html=1;rounded=0;entryX=0.175;entryY=0.25;entryDx=0;entryDy=0;entryPerimeter=0;" edge="1" parent="1" target="xvzeSq6x5T74EP9vHdep-50">
          <mxGeometry width="50" height="50" relative="1" as="geometry">
            <mxPoint x="90" y="240" as="sourcePoint" />
            <mxPoint x="610" y="400" as="targetPoint" />
            <Array as="points">
              <mxPoint x="90" y="300" />
            </Array>
          </mxGeometry>
        </mxCell>
        <mxCell id="xvzeSq6x5T74EP9vHdep-60" value="A" style="text;html=1;align=center;verticalAlign=middle;resizable=0;points=[];autosize=1;strokeColor=none;fillColor=none;fontSize=20;" vertex="1" parent="1">
          <mxGeometry x="70" y="195" width="40" height="40" as="geometry" />
        </mxCell>
        <mxCell id="xvzeSq6x5T74EP9vHdep-61" value="B" style="text;html=1;align=center;verticalAlign=middle;resizable=0;points=[];autosize=1;strokeColor=none;fillColor=none;fontSize=20;" vertex="1" parent="1">
          <mxGeometry x="70" y="405" width="40" height="40" as="geometry" />
        </mxCell>
        <mxCell id="xvzeSq6x5T74EP9vHdep-62" value="C" style="text;html=1;align=center;verticalAlign=middle;resizable=0;points=[];autosize=1;strokeColor=none;fillColor=none;fontSize=20;" vertex="1" parent="1">
          <mxGeometry x="70" y="480" width="40" height="40" as="geometry" />
        </mxCell>
        <mxCell id="xvzeSq6x5T74EP9vHdep-63" style="edgeStyle=orthogonalEdgeStyle;rounded=0;orthogonalLoop=1;jettySize=auto;html=1;exitX=0.175;exitY=0.25;exitDx=0;exitDy=0;exitPerimeter=0;entryX=1.05;entryY=0.625;entryDx=0;entryDy=0;entryPerimeter=0;endArrow=none;endFill=0;" edge="1" parent="1" source="xvzeSq6x5T74EP9vHdep-51" target="xvzeSq6x5T74EP9vHdep-60">
          <mxGeometry relative="1" as="geometry" />
        </mxCell>
        <mxCell id="xvzeSq6x5T74EP9vHdep-64" style="edgeStyle=orthogonalEdgeStyle;rounded=0;orthogonalLoop=1;jettySize=auto;html=1;exitX=1;exitY=0.5;exitDx=0;exitDy=0;exitPerimeter=0;entryX=0.175;entryY=0.75;entryDx=0;entryDy=0;entryPerimeter=0;endArrow=none;endFill=0;" edge="1" parent="1" source="xvzeSq6x5T74EP9vHdep-50" target="xvzeSq6x5T74EP9vHdep-51">
          <mxGeometry relative="1" as="geometry" />
        </mxCell>
        <mxCell id="xvzeSq6x5T74EP9vHdep-65" style="edgeStyle=orthogonalEdgeStyle;rounded=0;orthogonalLoop=1;jettySize=auto;html=1;exitX=1;exitY=0.5;exitDx=0;exitDy=0;exitPerimeter=0;entryX=0.175;entryY=0.25;entryDx=0;entryDy=0;entryPerimeter=0;endArrow=none;endFill=0;" edge="1" parent="1" source="xvzeSq6x5T74EP9vHdep-79" target="xvzeSq6x5T74EP9vHdep-52">
          <mxGeometry relative="1" as="geometry">
            <Array as="points">
              <mxPoint x="400" y="320" />
              <mxPoint x="400" y="380" />
            </Array>
          </mxGeometry>
        </mxCell>
        <mxCell id="xvzeSq6x5T74EP9vHdep-66" style="edgeStyle=orthogonalEdgeStyle;rounded=0;orthogonalLoop=1;jettySize=auto;html=1;exitX=0.175;exitY=0.75;exitDx=0;exitDy=0;exitPerimeter=0;entryX=1.1;entryY=0.375;entryDx=0;entryDy=0;entryPerimeter=0;endArrow=none;endFill=0;" edge="1" parent="1" source="xvzeSq6x5T74EP9vHdep-52" target="xvzeSq6x5T74EP9vHdep-61">
          <mxGeometry relative="1" as="geometry" />
        </mxCell>
        <mxCell id="xvzeSq6x5T74EP9vHdep-67" style="edgeStyle=orthogonalEdgeStyle;rounded=0;orthogonalLoop=1;jettySize=auto;html=1;exitX=1;exitY=0.5;exitDx=0;exitDy=0;exitPerimeter=0;entryX=0.175;entryY=0.25;entryDx=0;entryDy=0;entryPerimeter=0;endArrow=none;endFill=0;" edge="1" parent="1" source="xvzeSq6x5T74EP9vHdep-83" target="xvzeSq6x5T74EP9vHdep-53">
          <mxGeometry relative="1" as="geometry">
            <Array as="points">
              <mxPoint x="550" y="240" />
              <mxPoint x="550" y="300" />
            </Array>
          </mxGeometry>
        </mxCell>
        <mxCell id="xvzeSq6x5T74EP9vHdep-105" value="out_2" style="edgeLabel;html=1;align=center;verticalAlign=middle;resizable=0;points=[];" vertex="1" connectable="0" parent="xvzeSq6x5T74EP9vHdep-67">
          <mxGeometry x="-0.6511" y="-2" relative="1" as="geometry">
            <mxPoint y="-12" as="offset" />
          </mxGeometry>
        </mxCell>
        <mxCell id="xvzeSq6x5T74EP9vHdep-68" style="edgeStyle=orthogonalEdgeStyle;rounded=0;orthogonalLoop=1;jettySize=auto;html=1;exitX=1;exitY=0.5;exitDx=0;exitDy=0;exitPerimeter=0;entryX=0.175;entryY=0.75;entryDx=0;entryDy=0;entryPerimeter=0;endArrow=none;endFill=0;" edge="1" parent="1" source="xvzeSq6x5T74EP9vHdep-81" target="xvzeSq6x5T74EP9vHdep-53">
          <mxGeometry relative="1" as="geometry">
            <Array as="points">
              <mxPoint x="550" y="400" />
              <mxPoint x="550" y="340" />
            </Array>
          </mxGeometry>
        </mxCell>
        <mxCell id="xvzeSq6x5T74EP9vHdep-106" value="out_3" style="edgeLabel;html=1;align=center;verticalAlign=middle;resizable=0;points=[];" vertex="1" connectable="0" parent="xvzeSq6x5T74EP9vHdep-68">
          <mxGeometry x="-0.6262" y="2" relative="1" as="geometry">
            <mxPoint y="-8" as="offset" />
          </mxGeometry>
        </mxCell>
        <mxCell id="xvzeSq6x5T74EP9vHdep-69" style="edgeStyle=orthogonalEdgeStyle;rounded=0;orthogonalLoop=1;jettySize=auto;html=1;exitX=1;exitY=0.5;exitDx=0;exitDy=0;exitPerimeter=0;entryX=0.175;entryY=0.25;entryDx=0;entryDy=0;entryPerimeter=0;endArrow=none;endFill=0;" edge="1" parent="1" source="xvzeSq6x5T74EP9vHdep-53" target="xvzeSq6x5T74EP9vHdep-55">
          <mxGeometry relative="1" as="geometry" />
        </mxCell>
        <mxCell id="xvzeSq6x5T74EP9vHdep-70" style="edgeStyle=orthogonalEdgeStyle;rounded=0;orthogonalLoop=1;jettySize=auto;html=1;exitX=1;exitY=0.5;exitDx=0;exitDy=0;exitPerimeter=0;entryX=0.175;entryY=0.25;entryDx=0;entryDy=0;entryPerimeter=0;endArrow=none;endFill=0;" edge="1" parent="1" source="xvzeSq6x5T74EP9vHdep-85" target="xvzeSq6x5T74EP9vHdep-54">
          <mxGeometry relative="1" as="geometry">
            <Array as="points">
              <mxPoint x="710" y="320" />
              <mxPoint x="710" y="380" />
            </Array>
          </mxGeometry>
        </mxCell>
        <mxCell id="xvzeSq6x5T74EP9vHdep-107" value="out_4" style="edgeLabel;html=1;align=center;verticalAlign=middle;resizable=0;points=[];" vertex="1" connectable="0" parent="xvzeSq6x5T74EP9vHdep-70">
          <mxGeometry x="-0.6137" y="-2" relative="1" as="geometry">
            <mxPoint y="-12" as="offset" />
          </mxGeometry>
        </mxCell>
        <mxCell id="xvzeSq6x5T74EP9vHdep-71" style="edgeStyle=orthogonalEdgeStyle;rounded=0;orthogonalLoop=1;jettySize=auto;html=1;exitX=0.175;exitY=0.75;exitDx=0;exitDy=0;exitPerimeter=0;entryX=1.025;entryY=0.525;entryDx=0;entryDy=0;entryPerimeter=0;endArrow=none;endFill=0;" edge="1" parent="1" source="xvzeSq6x5T74EP9vHdep-54" target="xvzeSq6x5T74EP9vHdep-62">
          <mxGeometry relative="1" as="geometry">
            <Array as="points">
              <mxPoint x="570" y="420" />
              <mxPoint x="570" y="500" />
              <mxPoint x="111" y="500" />
            </Array>
          </mxGeometry>
        </mxCell>
        <mxCell id="xvzeSq6x5T74EP9vHdep-72" style="edgeStyle=orthogonalEdgeStyle;rounded=0;orthogonalLoop=1;jettySize=auto;html=1;exitX=1;exitY=0.5;exitDx=0;exitDy=0;exitPerimeter=0;entryX=0.175;entryY=0.75;entryDx=0;entryDy=0;entryPerimeter=0;endArrow=none;endFill=0;" edge="1" parent="1" source="xvzeSq6x5T74EP9vHdep-54" target="xvzeSq6x5T74EP9vHdep-55">
          <mxGeometry relative="1" as="geometry">
            <Array as="points">
              <mxPoint x="830" y="400" />
              <mxPoint x="830" y="340" />
            </Array>
          </mxGeometry>
        </mxCell>
        <mxCell id="xvzeSq6x5T74EP9vHdep-73" style="edgeStyle=orthogonalEdgeStyle;rounded=0;orthogonalLoop=1;jettySize=auto;html=1;exitX=1;exitY=0.5;exitDx=0;exitDy=0;exitPerimeter=0;entryX=0.175;entryY=0.25;entryDx=0;entryDy=0;entryPerimeter=0;endArrow=none;endFill=0;" edge="1" parent="1" source="xvzeSq6x5T74EP9vHdep-89" target="xvzeSq6x5T74EP9vHdep-57">
          <mxGeometry relative="1" as="geometry">
            <Array as="points">
              <mxPoint x="1040" y="320" />
              <mxPoint x="1040" y="380" />
            </Array>
          </mxGeometry>
        </mxCell>
        <mxCell id="xvzeSq6x5T74EP9vHdep-109" value="out_6" style="edgeLabel;html=1;align=center;verticalAlign=middle;resizable=0;points=[];" vertex="1" connectable="0" parent="xvzeSq6x5T74EP9vHdep-73">
          <mxGeometry x="-0.6013" y="4" relative="1" as="geometry">
            <mxPoint y="-6" as="offset" />
          </mxGeometry>
        </mxCell>
        <mxCell id="xvzeSq6x5T74EP9vHdep-74" style="edgeStyle=orthogonalEdgeStyle;rounded=0;orthogonalLoop=1;jettySize=auto;html=1;exitX=1;exitY=0.5;exitDx=0;exitDy=0;exitPerimeter=0;entryX=0.175;entryY=0.75;entryDx=0;entryDy=0;entryPerimeter=0;endArrow=none;endFill=0;" edge="1" parent="1" source="xvzeSq6x5T74EP9vHdep-93" target="xvzeSq6x5T74EP9vHdep-57">
          <mxGeometry relative="1" as="geometry">
            <Array as="points">
              <mxPoint x="1040" y="480" />
              <mxPoint x="1040" y="420" />
            </Array>
          </mxGeometry>
        </mxCell>
        <mxCell id="xvzeSq6x5T74EP9vHdep-110" value="out_7" style="edgeLabel;html=1;align=center;verticalAlign=middle;resizable=0;points=[];" vertex="1" connectable="0" parent="xvzeSq6x5T74EP9vHdep-74">
          <mxGeometry x="-0.6636" y="4" relative="1" as="geometry">
            <mxPoint x="13" y="-6" as="offset" />
          </mxGeometry>
        </mxCell>
        <mxCell id="xvzeSq6x5T74EP9vHdep-75" style="edgeStyle=orthogonalEdgeStyle;rounded=0;orthogonalLoop=1;jettySize=auto;html=1;exitX=1;exitY=0.5;exitDx=0;exitDy=0;exitPerimeter=0;entryX=0.175;entryY=0.25;entryDx=0;entryDy=0;entryPerimeter=0;endArrow=none;endFill=0;" edge="1" parent="1" source="xvzeSq6x5T74EP9vHdep-54" target="xvzeSq6x5T74EP9vHdep-56">
          <mxGeometry relative="1" as="geometry">
            <Array as="points">
              <mxPoint x="830" y="400" />
              <mxPoint x="830" y="460" />
            </Array>
          </mxGeometry>
        </mxCell>
        <mxCell id="xvzeSq6x5T74EP9vHdep-76" style="edgeStyle=orthogonalEdgeStyle;rounded=0;orthogonalLoop=1;jettySize=auto;html=1;exitX=0.175;exitY=0.75;exitDx=0;exitDy=0;exitPerimeter=0;entryX=1;entryY=0.475;entryDx=0;entryDy=0;entryPerimeter=0;endArrow=none;endFill=0;" edge="1" parent="1" source="xvzeSq6x5T74EP9vHdep-56" target="xvzeSq6x5T74EP9vHdep-62">
          <mxGeometry relative="1" as="geometry">
            <Array as="points">
              <mxPoint x="110" y="500" />
            </Array>
          </mxGeometry>
        </mxCell>
        <mxCell id="xvzeSq6x5T74EP9vHdep-77" style="edgeStyle=orthogonalEdgeStyle;rounded=0;orthogonalLoop=1;jettySize=auto;html=1;exitX=1;exitY=0.5;exitDx=0;exitDy=0;exitPerimeter=0;entryX=0.175;entryY=0.25;entryDx=0;entryDy=0;entryPerimeter=0;endArrow=none;endFill=0;" edge="1" parent="1" source="xvzeSq6x5T74EP9vHdep-50" target="xvzeSq6x5T74EP9vHdep-58">
          <mxGeometry relative="1" as="geometry">
            <Array as="points">
              <mxPoint x="350" y="320" />
              <mxPoint x="350" y="180" />
            </Array>
          </mxGeometry>
        </mxCell>
        <mxCell id="xvzeSq6x5T74EP9vHdep-104" value="out_1" style="edgeLabel;html=1;align=center;verticalAlign=middle;resizable=0;points=[];" vertex="1" connectable="0" parent="xvzeSq6x5T74EP9vHdep-77">
          <mxGeometry x="-0.9304" y="2" relative="1" as="geometry">
            <mxPoint x="-11" y="-8" as="offset" />
          </mxGeometry>
        </mxCell>
        <mxCell id="xvzeSq6x5T74EP9vHdep-78" value="" style="edgeStyle=orthogonalEdgeStyle;rounded=0;orthogonalLoop=1;jettySize=auto;html=1;exitX=1;exitY=0.5;exitDx=0;exitDy=0;exitPerimeter=0;entryX=0.175;entryY=0.25;entryDx=0;entryDy=0;entryPerimeter=0;endArrow=none;endFill=0;" edge="1" parent="1" source="xvzeSq6x5T74EP9vHdep-50" target="xvzeSq6x5T74EP9vHdep-79">
          <mxGeometry relative="1" as="geometry">
            <mxPoint x="300" y="320" as="sourcePoint" />
            <mxPoint x="411" y="380" as="targetPoint" />
          </mxGeometry>
        </mxCell>
        <mxCell id="xvzeSq6x5T74EP9vHdep-79" value="" style="ellipse;whiteSpace=wrap;html=1;aspect=fixed;" vertex="1" parent="1">
          <mxGeometry x="300" y="315" width="10" height="10" as="geometry" />
        </mxCell>
        <mxCell id="xvzeSq6x5T74EP9vHdep-80" value="" style="edgeStyle=orthogonalEdgeStyle;rounded=0;orthogonalLoop=1;jettySize=auto;html=1;exitX=1;exitY=0.5;exitDx=0;exitDy=0;exitPerimeter=0;entryX=0.175;entryY=0.75;entryDx=0;entryDy=0;entryPerimeter=0;endArrow=none;endFill=0;" edge="1" parent="1" source="xvzeSq6x5T74EP9vHdep-52" target="xvzeSq6x5T74EP9vHdep-81">
          <mxGeometry relative="1" as="geometry">
            <mxPoint x="460" y="400" as="sourcePoint" />
            <mxPoint x="571" y="340" as="targetPoint" />
          </mxGeometry>
        </mxCell>
        <mxCell id="xvzeSq6x5T74EP9vHdep-81" value="" style="ellipse;whiteSpace=wrap;html=1;aspect=fixed;" vertex="1" parent="1">
          <mxGeometry x="460" y="395" width="10" height="10" as="geometry" />
        </mxCell>
        <mxCell id="xvzeSq6x5T74EP9vHdep-82" value="" style="edgeStyle=orthogonalEdgeStyle;rounded=0;orthogonalLoop=1;jettySize=auto;html=1;exitX=1;exitY=0.5;exitDx=0;exitDy=0;exitPerimeter=0;entryX=0.175;entryY=0.25;entryDx=0;entryDy=0;entryPerimeter=0;endArrow=none;endFill=0;" edge="1" parent="1" source="xvzeSq6x5T74EP9vHdep-51" target="xvzeSq6x5T74EP9vHdep-83">
          <mxGeometry relative="1" as="geometry">
            <mxPoint x="460" y="240" as="sourcePoint" />
            <mxPoint x="571" y="300" as="targetPoint" />
          </mxGeometry>
        </mxCell>
        <mxCell id="xvzeSq6x5T74EP9vHdep-83" value="" style="ellipse;whiteSpace=wrap;html=1;aspect=fixed;" vertex="1" parent="1">
          <mxGeometry x="460" y="235" width="10" height="10" as="geometry" />
        </mxCell>
        <mxCell id="xvzeSq6x5T74EP9vHdep-84" value="" style="edgeStyle=orthogonalEdgeStyle;rounded=0;orthogonalLoop=1;jettySize=auto;html=1;exitX=1;exitY=0.5;exitDx=0;exitDy=0;exitPerimeter=0;entryX=0.175;entryY=0.25;entryDx=0;entryDy=0;entryPerimeter=0;endArrow=none;endFill=0;" edge="1" parent="1" source="xvzeSq6x5T74EP9vHdep-53" target="xvzeSq6x5T74EP9vHdep-85">
          <mxGeometry relative="1" as="geometry">
            <mxPoint x="620" y="320" as="sourcePoint" />
            <mxPoint x="731" y="380" as="targetPoint" />
          </mxGeometry>
        </mxCell>
        <mxCell id="xvzeSq6x5T74EP9vHdep-85" value="" style="ellipse;whiteSpace=wrap;html=1;aspect=fixed;" vertex="1" parent="1">
          <mxGeometry x="620" y="315" width="10" height="10" as="geometry" />
        </mxCell>
        <mxCell id="xvzeSq6x5T74EP9vHdep-86" value="" style="edgeStyle=orthogonalEdgeStyle;rounded=0;orthogonalLoop=1;jettySize=auto;html=1;exitX=0.175;exitY=0.75;exitDx=0;exitDy=0;exitPerimeter=0;entryX=1;entryY=0.5;entryDx=0;entryDy=0;entryPerimeter=0;endArrow=none;endFill=0;" edge="1" parent="1" source="xvzeSq6x5T74EP9vHdep-58" target="xvzeSq6x5T74EP9vHdep-87">
          <mxGeometry relative="1" as="geometry">
            <mxPoint x="1051" y="220" as="sourcePoint" />
            <mxPoint x="780" y="400" as="targetPoint" />
            <Array as="points">
              <mxPoint x="830" y="220" />
              <mxPoint x="830" y="400" />
            </Array>
          </mxGeometry>
        </mxCell>
        <mxCell id="xvzeSq6x5T74EP9vHdep-108" value="out_5" style="edgeLabel;html=1;align=center;verticalAlign=middle;resizable=0;points=[];" vertex="1" connectable="0" parent="xvzeSq6x5T74EP9vHdep-86">
          <mxGeometry x="0.9228" y="-1" relative="1" as="geometry">
            <mxPoint y="-9" as="offset" />
          </mxGeometry>
        </mxCell>
        <mxCell id="xvzeSq6x5T74EP9vHdep-87" value="" style="ellipse;whiteSpace=wrap;html=1;aspect=fixed;" vertex="1" parent="1">
          <mxGeometry x="780" y="395" width="10" height="10" as="geometry" />
        </mxCell>
        <mxCell id="xvzeSq6x5T74EP9vHdep-88" value="" style="edgeStyle=orthogonalEdgeStyle;rounded=0;orthogonalLoop=1;jettySize=auto;html=1;exitX=1;exitY=0.5;exitDx=0;exitDy=0;exitPerimeter=0;entryX=0.175;entryY=0.25;entryDx=0;entryDy=0;entryPerimeter=0;endArrow=none;endFill=0;" edge="1" parent="1" source="xvzeSq6x5T74EP9vHdep-55" target="xvzeSq6x5T74EP9vHdep-89">
          <mxGeometry relative="1" as="geometry">
            <mxPoint x="950" y="320" as="sourcePoint" />
            <mxPoint x="1051" y="380" as="targetPoint" />
          </mxGeometry>
        </mxCell>
        <mxCell id="xvzeSq6x5T74EP9vHdep-89" value="" style="ellipse;whiteSpace=wrap;html=1;aspect=fixed;" vertex="1" parent="1">
          <mxGeometry x="950" y="315" width="10" height="10" as="geometry" />
        </mxCell>
        <mxCell id="xvzeSq6x5T74EP9vHdep-90" value="" style="ellipse;whiteSpace=wrap;html=1;aspect=fixed;" vertex="1" parent="1">
          <mxGeometry x="1100" y="395" width="10" height="10" as="geometry" />
        </mxCell>
        <mxCell id="xvzeSq6x5T74EP9vHdep-91" value="" style="ellipse;whiteSpace=wrap;html=1;aspect=fixed;" vertex="1" parent="1">
          <mxGeometry x="1100" y="195" width="10" height="10" as="geometry" />
        </mxCell>
        <mxCell id="xvzeSq6x5T74EP9vHdep-92" value="" style="edgeStyle=orthogonalEdgeStyle;rounded=0;orthogonalLoop=1;jettySize=auto;html=1;exitX=1;exitY=0.5;exitDx=0;exitDy=0;exitPerimeter=0;entryX=0.175;entryY=0.75;entryDx=0;entryDy=0;entryPerimeter=0;endArrow=none;endFill=0;" edge="1" parent="1" source="xvzeSq6x5T74EP9vHdep-56" target="xvzeSq6x5T74EP9vHdep-93">
          <mxGeometry relative="1" as="geometry">
            <mxPoint x="940" y="480" as="sourcePoint" />
            <mxPoint x="1051" y="420" as="targetPoint" />
          </mxGeometry>
        </mxCell>
        <mxCell id="xvzeSq6x5T74EP9vHdep-93" value="" style="ellipse;whiteSpace=wrap;html=1;aspect=fixed;" vertex="1" parent="1">
          <mxGeometry x="940" y="475" width="10" height="10" as="geometry" />
        </mxCell>
        <mxCell id="xvzeSq6x5T74EP9vHdep-94" value="" style="ellipse;whiteSpace=wrap;html=1;fillStyle=solid;fillColor=#ffffff;recursiveResize=0;expand=0;editable=1;movable=1;resizable=1;rotatable=0;deletable=1;locked=0;connectable=0;allowArrows=0;aspect=fixed;" vertex="1" parent="1">
          <mxGeometry x="345" y="315" width="10" height="10" as="geometry" />
        </mxCell>
        <mxCell id="xvzeSq6x5T74EP9vHdep-95" value="" style="ellipse;whiteSpace=wrap;html=1;fillStyle=solid;fillColor=#ffffff;recursiveResize=0;expand=0;editable=1;movable=1;resizable=1;rotatable=0;deletable=1;locked=0;connectable=0;allowArrows=0;aspect=fixed;" vertex="1" parent="1">
          <mxGeometry x="345" y="255" width="10" height="10" as="geometry" />
        </mxCell>
        <mxCell id="xvzeSq6x5T74EP9vHdep-96" value="" style="ellipse;whiteSpace=wrap;html=1;aspect=fixed;fillStyle=solid;fillColor=#ffffff;recursiveResize=0;expand=0;editable=1;movable=1;resizable=1;rotatable=0;deletable=1;locked=0;connectable=0;allowArrows=0;" vertex="1" parent="1">
          <mxGeometry x="705" y="315" width="10" height="10" as="geometry" />
        </mxCell>
        <mxCell id="xvzeSq6x5T74EP9vHdep-97" value="" style="ellipse;whiteSpace=wrap;html=1;aspect=fixed;fillStyle=solid;fillColor=#ffffff;recursiveResize=0;expand=0;editable=1;movable=1;resizable=1;rotatable=0;deletable=1;locked=0;connectable=0;allowArrows=0;" vertex="1" parent="1">
          <mxGeometry x="565" y="495" width="10" height="10" as="geometry" />
        </mxCell>
        <mxCell id="xvzeSq6x5T74EP9vHdep-98" value="" style="ellipse;whiteSpace=wrap;html=1;aspect=fixed;fillStyle=solid;fillColor=#ffffff;recursiveResize=0;expand=0;editable=1;movable=1;resizable=1;rotatable=0;deletable=1;locked=0;connectable=0;allowArrows=0;" vertex="1" parent="1">
          <mxGeometry x="827" y="395" width="10" height="10" as="geometry" />
        </mxCell>
        <mxCell id="xvzeSq6x5T74EP9vHdep-99" value="" style="ellipse;whiteSpace=wrap;html=1;aspect=fixed;fillStyle=solid;fillColor=#ffffff;recursiveResize=0;expand=0;editable=1;movable=1;resizable=1;rotatable=0;deletable=1;locked=0;connectable=0;allowArrows=0;" vertex="1" parent="1">
          <mxGeometry x="827" y="335" width="10" height="10" as="geometry" />
        </mxCell>
      </root>
    </mxGraphModel>
  </diagram>
</mxfile>
